<svg id="Layer_1" data-name="Layer 1" xmlns="http://www.w3.org/2000/svg" viewBox="0 0 144.01 157.2"><defs><style>.cls-1{fill:#61a3d7;}</style></defs><path class="cls-1" d="M90.37,123A3.86,3.86,0,0,0,85,124.63q-7.68,13.26-15.31,26.55a11.53,11.53,0,0,0-.75,2,4.09,4.09,0,0,0,3,3.86,3.78,3.78,0,0,0,4.39-1.93q7.71-13.32,15.38-26.65A3.86,3.86,0,0,0,90.37,123Z"/><path class="cls-1" d="M116.26,123a3.84,3.84,0,0,0-5.34,1.59q-6.39,11-12.73,22.06a14.1,14.1,0,0,0-.8,2.11,4.26,4.26,0,0,0,2.93,3.76,3.86,3.86,0,0,0,4.54-1.89q6.4-11.07,12.79-22.16A3.84,3.84,0,0,0,116.26,123Z"/><path class="cls-1" d="M63.53,122.65a3.79,3.79,0,0,0-4.44,1.84q-6.48,11.17-12.89,22.37a4.49,4.49,0,0,0-.51,2.42,3.71,3.71,0,0,0,2.94,3.3,3.76,3.76,0,0,0,4.25-1.81q6.52-11.21,13-22.46a10,10,0,0,0,.62-1.82A4.18,4.18,0,0,0,63.53,122.65Z"/><path class="cls-1" d="M142.6,84.35C139,74,131.3,68.43,120.54,66.76c-.23-1.85-.35-3.69-.69-5.49A34.64,34.64,0,0,0,111.21,44l-5.49,5.48a27.13,27.13,0,0,1,7,20.22c-.19,3,1.76,4.82,4.68,4.78,7.72-.11,13.62,3.21,16.94,10.2a18,18,0,0,1-16.26,25.91c-10.16,0-20.32,0-30.48,0h-30a23,23,0,0,1-10.51-2.5l-5.68,5.68a30.08,30.08,0,0,0,16.13,4.63q30.14,0,60.28,0a29.86,29.86,0,0,0,4.81-.43C138.1,115.3,147.78,99.14,142.6,84.35Z"/><path class="cls-1" d="M139.83,3.83,136.54.54a1.82,1.82,0,0,0-2.59,0L.54,134a1.82,1.82,0,0,0,0,2.59l3.29,3.29a1.83,1.83,0,0,0,1.3.54,1.81,1.81,0,0,0,1.29-.54L139.83,6.42A1.82,1.82,0,0,0,139.83,3.83Z"/><path class="cls-1" d="M36.62,72.45A2.22,2.22,0,0,1,37.29,74c-.7,4.86-1.44,9.72-2.18,14.57L48.59,75.09h0l25.79-25.8h0L84,39.65a1.94,1.94,0,0,1-1.46-1.18C79.06,31.52,75.49,24.6,72,17.64c-1.34-2.68-3.35-4.34-6.35-4.35s-5,1.64-6.37,4.31c-3.5,7-7.08,14-10.59,20.94a1.84,1.84,0,0,1-1.52,1.14c-5.64.9-11.27,1.86-16.91,2.79-2.16.35-4.33.67-6.48,1a6.68,6.68,0,0,0-5.62,4.79A6.77,6.77,0,0,0,20,55.45Q28.33,63.94,36.62,72.45Z"/></svg>